<?xml version="1.0" encoding="utf-8"?>
<!-- Generator: Adobe Illustrator 19.1.0, SVG Export Plug-In . SVG Version: 6.00 Build 0)  -->
<svg version="1.1" xmlns="http://www.w3.org/2000/svg" xmlns:xlink="http://www.w3.org/1999/xlink" x="0px" y="0px"
	 viewBox="0 0 955.3 382.1" enable-background="new 0 0 955.3 382.1" xml:space="preserve">
<g id="Layer_1">
	<g id="ic_x5F_fileDownload">
	</g>
	<g id="ic_x5F_arrowForward_x0D_">
	</g>
	<g>
		<g opacity="6.000000e-02">
			<g>
				<path fill="#CFD8DC" d="M612.1,115.9c-3.1,8.5-7.8,15.8-14,21.8c-3.6-5.9-7-10.1-11.8-13.9c5-4.6,7.8-8.3,10.2-13.6
					c3.4-7.5,5.2-17.3,5.2-29.1c0-4.2-0.1-7-0.3-9.3c-3.3,1.4-4,1.7-8,3.1c-2-5.9-3.9-10.1-7.1-15.5c10.1-2.5,16.7-5.1,24.4-9.3
					c7.6-4.1,12.4-7.8,16.6-12.6h18.5c5.6,5.6,9.6,8.4,16.9,12.1c7.3,3.6,15.4,6.9,25.7,9.5c-3.2,5.2-6.5,8.2-8.5,15.3
					c-2.4-1.2-3.4-1.9-5.9-2.9c-0.2,2.2-0.2,3.8-0.2,6.9V96c0,4,0.1,6.4,0.3,9.3c-3.2-0.1-5.3-0.2-8-0.2h-51.3
					c-0.2,1.3-0.3,1.7-0.5,3c1.9,0.1,3.2,0.1,5,0.1h48.2c4,0,6.6-0.1,9.2-0.3c-0.3,2.4-0.4,4.7-0.4,7.2v14.6c0,3.6,0.1,5.7,0.4,8.1
					H660v-3.2h-32.2v3.2h-16.2c0.4-2.5,0.5-4.8,0.5-8.3V115.9z M618.7,63c-3.6,2.2-7.1,4-12,6.4c2.3,0.1,3.8,0.1,6.8,0.1h49.4
					c2.9,0,4,0,6.4-0.1c-5.6-2.4-8.4-3.7-13.1-6.3v3.8c-3.2-0.1-5.3-0.2-7.9-0.2h-21.6c-4.2,0-5.3,0-8.1,0.2V63z M616.7,91.9
					c-0.1,1.3-0.1,1.7-0.3,3H658v-3H616.7z M658,82.8v-3.1h-40.9v3.1H658z M627.7,123.3h32.4V119h-32.4V123.3z M645.3,56.5
					c-3.5-2.4-5.2-3.7-8.9-7c-2.9,3.1-4.4,4.4-7.9,7H645.3z"/>
			</g>
			<g>
				<path fill="#CFD8DC" d="M691.3,73.6c-5.1,0-8.5,0.2-11.6,0.5V58.2c3.2,0.4,6.5,0.6,11.7,0.6h4.6v-3.7c0-2.7-0.2-5-0.5-7.4h16.9
					c-0.4,2.4-0.6,4.8-0.6,7.6v3.5h2.3c5.2,0,8.5-0.2,11.8-0.6v15.9c-3.6-0.3-7.1-0.5-11.8-0.5h-2.3V82h1.5c5,0,8.7-0.2,12.3-0.5
					v15.6c-3.6-0.3-7.2-0.5-12-0.5h-19.9c-3.9,0-7.8,0.1-11.9,0.4V81.5c3.5,0.3,7.3,0.5,12.3,0.5h1.9v-8.4H691.3z M765.3,126.4
					c4.6,4.2,8.7,6.7,16.1,9.5c-3.1,3.2-6.1,7.2-9.2,12.6c-8.8-5-12.4-7.8-19.2-15.1c-7.2,7.3-12.1,10.7-21.2,14.9
					c-2-3.8-3.8-6.4-7.1-9.9c0,2.7,0.1,4.2,0.3,6.9h-15V142h-10.6v5.2h-15.8c0.4-3.5,0.5-6.9,0.5-12v-22.9c0-5.5-0.1-8-0.4-10.8
					c2.4,0.2,5,0.3,9.2,0.3h23.3c4.2,0,6.8-0.1,8.6-0.3c-0.2,2.3-0.2,3.8-0.2,9.6v24.2c6.4-2.3,10.9-5,15.3-8.8h-3.1
					c-2.1,0-3.5,0-7.5,0.2c0.2-3,0.2-3.8,0.2-7.6V78.7c0-3.5-0.1-6.3-0.3-8.7c2,0.2,3.2,0.2,7.4,0.2h6.5c1-2.1,1.3-2.8,2-4.7h-5.5
					c-4.7,0-8.1,0.2-11.9,0.6V49.7c3.7,0.4,7,0.6,11.9,0.6h27.6c4.6,0,7.9-0.2,11.8-0.6v16.5c-3.9-0.4-7.4-0.6-11.8-0.6h-6.6
					c-0.7,1.9-1.1,2.5-2.1,4.7h8.8c5.3,0,7.1,0,9.3-0.2c-0.2,2-0.3,5.2-0.3,9.6v38.6c0,3.5,0.1,6.1,0.3,8.6c-4-0.2-6.7-0.3-8.2-0.3
					H765.3z M699.3,127h10.6v-11.2h-10.6V127z M743.8,86.4h17.8v-3.8h-17.8V86.4z M743.8,99.7h17.8v-3.7h-17.8V99.7z M743.8,113.3
					h17.8v-3.7h-17.8V113.3z M760.7,126.4h-16.2l8.6,6.7L760.7,126.4z"/>
			</g>
		</g>
		<g opacity="5.000000e-02">
			<g>
				<path fill="#CFD8DC" d="M200.4,87.6c-0.5,3.9-1.1,6.9-2.2,10.2c-1.9,5.6-4.1,9.3-9,14.9c-2.4-3.1-3.7-4.3-6.7-6.2
					c2.7-2.6,3.9-3.9,5.3-6c-0.4,0-0.4,0-0.9-0.1c-1.3,0-3.2-0.1-4.4-0.1h-20v4.9h-7.6c0.3-2.6,0.4-5.2,0.4-9.3V56.2
					c0-4.7-0.1-6.2-0.4-8.6c2.4,0.3,4.6,0.5,7.9,0.5h19.4c4.1,0,5.9-0.1,7.7-0.4c-0.2,2.2-0.3,5.3-0.3,8.5v35.7c0,2.1,0,3.5,0.1,5.5
					c1.4-2.6,2.3-5.6,2.9-10.3c0.7-4.5,1-7.6,1.1-13.2c0.2-3.8,0.3-16.1,0.3-18.7c0-4.7-0.1-7.8-0.4-10.2c2,0.2,4.3,0.3,8.2,0.3
					h11.7c4,0,5.9-0.1,8-0.3c-0.2,2.3-0.3,4.5-0.3,8.3v49.4c0,6.8-2.2,8.8-9.7,8.8c-1.6,0-3-0.1-6.5-0.2c-0.5-3.6-0.8-5-2-8.4
					c3.1,0.5,5.9,0.8,8.3,0.8c1.7,0,2.2-0.5,2.2-2.2V87.6H200.4z M165.4,80.3c0-2.6,0-3.5-0.2-4.7c1.1,0.2,2.6,0.2,4.4,0.2h5.9
					c1.9,0,3.2-0.1,4.2-0.2c-0.1,1.4-0.2,3.2-0.2,5.5v12.6h2.9V72.1l-5.3,2.6c-0.8-6.1-2-11.1-4.1-16.9l4.9-2.5
					c2.5,6.4,3.9,11.2,4.5,15.2V54.7h-19.9v15.4c2-3.5,3.4-8.6,3.8-14.5l5.2,2.2c-0.7,7-2,11.8-5,17.5c-1.6-2-2.3-2.5-3.9-3.4v21.7
					h2.9V80.3z M174.1,81.5h-3.3v12.1h3.3V81.5z M213.4,70.2h-11.9c-0.3,8.4-0.3,8.4-0.5,10.5h12.3V70.2z M213.4,52.9h-11.8v10.2
					h11.8V52.9z"/>
			</g>
			<g>
				<path fill="#CFD8DC" d="M242.3,88.8c-0.8,4.3-1.3,6.2-2.2,9c-2,5.7-4.6,10.1-8.9,14.9c-2.2-2.9-4.1-4.8-7-6.9
					c4.2-4.2,6.3-7.6,8.1-13.2c2.3-6.9,3-15.9,3-35.4c0-5.3-0.2-8.7-0.4-11.4c2.9,0.3,5,0.4,8.8,0.4h31.4c4.1,0,6.2-0.1,8.7-0.4
					c-0.3,2-0.4,4.1-0.4,8.5v48.8c0,3.8-0.8,5.9-2.7,7.2c-1.7,1.1-3.8,1.4-8.7,1.4c-2.6,0-4.7-0.1-8.7-0.3c-0.5-3.6-0.9-5.3-2.2-8.4
					c3.8,0.6,7.9,0.9,11.1,0.9c2.3,0,2.8-0.4,2.8-2v-13H242.3z M275,71.1h-31.2c-0.1,2.4-0.2,5.9-0.6,10.1H275V71.1z M275,54h-31.1
					v9.4H275V54z"/>
			</g>
			<g>
				<path fill="#CFD8DC" d="M313.2,80.7c-0.8,0.4-0.8,0.4-3.3,1.4c-0.6,0.3-0.9,0.4-2.9,1.2v21.4c0,5.9-2,7.4-9.8,7.4
					c-1.8,0-3,0-5.3-0.2c-0.4-3.6-0.7-5-1.8-7.8c2.6,0.4,4.5,0.5,6.3,0.5c2.2,0,2.6-0.4,2.6-2.3V86.2c-5.8,2-6.6,2.3-7.8,2.7
					l-1.1-8.5c2.3-0.2,3.1-0.4,9-2.2V64.5h-2.8c-2,0-3.4,0.1-5.4,0.3v-8.1c2,0.4,3.4,0.5,5.6,0.5h2.6v-6.2c0-3.8-0.1-5.4-0.5-7.7
					h8.7c-0.3,2-0.4,3.9-0.4,7.6v6.2h2.1c1.6,0,2.8-0.1,4-0.3v7.8c-1.4-0.2-2.5-0.2-4-0.2h-2.1v11c1.9-0.8,2.9-1.1,6.3-2.5v5.1
					c2,0.3,3.3,0.4,6,0.4h4c0.1-2.4,0.1-2.6,0.1-3.2V66h-1.7c-2.9,0-4.8,0.1-6.4,0.4v-8.1c1.8,0.3,3.7,0.4,6.6,0.4h4.2
					c-2-5.2-3.3-7.5-6.7-12.1l7.1-3.2c3.5,4.4,4.8,6.5,7.4,12.2l-6.5,3.1h11.2c3.2-5.7,4.7-9.5,6.5-15.7l8.4,2.7
					c-2.4,5.6-4.4,9.6-6.3,13h3.8c3.2,0,5.3-0.2,7.4-0.4v8.1c-2-0.3-4-0.4-6.6-0.4h-2.7v12.5h3.5c3.2,0,5.1-0.2,6.9-0.5v8.3
					c-2.3-0.2-4.3-0.4-7-0.4h-3.5v18.4c0,3.3,0.2,5.7,0.5,8.2h-9c0.3-2.4,0.5-4.8,0.5-8.2V86h-9.9c-0.8,12-4.8,19.3-15,26.4
					c-2-3.1-3.5-4.7-6-6.8c9-5.8,12.1-10.6,12.8-19.6h-3.5c-2.9,0-4.4,0.1-6.2,0.4V80.7z M331.4,66v9.3c0,2,0,2.1-0.1,3.2h9.6V66
					H331.4z"/>
			</g>
			<g>
				<path fill="#CFD8DC" d="M391.4,49.3c-0.9-1.7-1.4-2.5-2.6-4.5l8.3-2.9c1.7,2.9,2.3,4.3,3.5,7.4h16c4.1,0,7-0.2,9.3-0.5v8.1
					c-2.4-0.2-4.4-0.3-8.1-0.3h-3.5c-1.8,4.2-2.9,6.6-4.4,9.1h11.4c4.4,0,6.5-0.1,8.6-0.4v8.1c-2.2-0.3-4.3-0.4-8.7-0.4h-50.6
					c-4.4,0-6.4,0.1-8.7,0.4v-8.1c2.3,0.3,4.5,0.4,9,0.4h9.6c-0.7-2.4-2.3-6.2-3.9-9.1h-3.2c-3.5,0-5.4,0.1-7.8,0.3v-8.1
					c2.3,0.3,5,0.5,8.8,0.5H391.4z M413.6,77.3c3.1,0,4.8-0.1,7.2-0.3c-0.2,2.4-0.3,4.2-0.3,6.8v21.5c0,3.1,0.2,5.2,0.5,7.4h-8.7
					v-3.2h-32.7v3.2h-8.7c0.3-2.3,0.5-4.5,0.5-7.4V83.8c0-2.3-0.1-4.4-0.4-6.8c2.5,0.2,4.1,0.3,7.2,0.3H413.6z M379.6,89.7h32.7
					v-5.3h-32.7V89.7z M379.6,102.3h32.7v-6h-32.7V102.3z M385.5,56.6c0.2,0.2,0.2,0.2,0.3,0.5c1.2,2.5,2.4,5.4,3.5,8.6h12.3
					c1.6-2.5,3.3-6.4,4.1-9.1H385.5z"/>
			</g>
		</g>
		<g opacity="6.000000e-02">
			<g>
				<path fill="#CFD8DC" d="M130.2,313.7c-6.1,17.3-11.5,28.2-17,34.9l15,12.9c6.9-12,10.3-19.7,16.4-37.9L130.2,313.7z"/>
			</g>
			<g>
				<path fill="#CFD8DC" d="M143.6,297.1c-8.1-6.4-11.6-8.8-20.8-14.2l-10.2,13.4c8.5,4.6,13.5,8.1,22.1,15.5L143.6,297.1z"/>
			</g>
			<g>
				<path fill="#CFD8DC" d="M147.6,269c-7.9-6.3-12.5-9.6-20.8-14.3l-10.7,12.6c8.7,5.2,13.2,8.6,21.2,15.8L147.6,269z"/>
			</g>
			<g>
				<path fill="#CFD8DC" d="M310.3,308.1c0-4.6,0.1-7.9,0.6-12.2c-3.7,0.2-6.2,0.4-11.9,0.4h-60.8c-5.6,0-8.2-0.1-11.8-0.4
					c0.5,4,0.6,7.6,0.6,12.2v33.4c0,5.1-0.2,9.2-0.7,13h18.6v-4.3h47.5v4.3H311c-0.5-3.8-0.7-7.5-0.7-13V308.1z M292.4,335.3h-47.5
					v-5.5h47.5V335.3z M292.4,316.2h-47.5V311h47.5V316.2z"/>
			</g>
			<g>
				<path fill="#CFD8DC" d="M309.9,275.9h-14.1c1.4-2.6,2.7-5.2,4.2-8.7h4.9c6.2,0,9.3,0.1,13.1,0.5V250c-4.1,0.5-9.7,0.7-16.6,0.7
					h-24.2v-1.5c0-2.6,0.2-4.6,0.6-6.8h-20.1c0.4,2.1,0.6,4.4,0.6,6.9v1.4h-23.5c-6.6,0-11.6-0.2-15.7-0.7v17.6
					c3.8-0.4,6.8-0.5,12.7-0.5h3.9c1.7,2.9,3,5.5,4.2,8.7h-27.6l0,0H189l7.9-8.2c-9.1-6.2-14.1-8.9-24.9-13.8l-12.2,12
					c7.8,3.7,12.2,6.2,18.2,10h-19.1c-6.3,0-10.5-0.2-13.6-0.7v17.5c3.8-0.3,8.1-0.6,13.5-0.6h12.3v15.6h-9.6
					c-4.9,0-9.6-0.2-13.1-0.6v17c3.7-0.3,8.3-0.6,13.1-0.6h9.6v17.9h-13.5c-4.7,0-10.6-0.2-14.4-0.7v17.5c3.7-0.5,8.5-0.7,14.6-0.7
					h46.9c6.1,0,10.7,0.2,14.6,0.7v-17.5c-4.1,0.5-8.8,0.7-14.6,0.7h-15.7v-17.9h11.8c4.7,0,9.4,0.2,13.1,0.6v-17
					c-3.4,0.3-8.1,0.6-13.1,0.6h-11.8v-15.6l34.5-0.1l1.1,0l0,0.1V292l85.2,0.1c6.9,0,9.8,0.1,13.6,0.6v-17.3
					C319.9,275.7,316.7,275.9,309.9,275.9z M276.7,275.9h-17c-1.1-2.9-2.1-5.4-3.8-8.7h24.7C279.2,270.4,278.2,272.8,276.7,275.9z"
					/>
			</g>
		</g>
		<g>
			<path fill="#37393D" d="M709.5,235.5c0.4-0.8,0.4-0.8,0.9-2.2c1.6-4.2,3.5-10.6,5.1-17.2h-4.3c-2.6,0-5.5,0.1-7.8,0.4v-10.9
				c2.1,0.2,5.2,0.4,8.2,0.4h6.2c1.1-5.6,1.4-7.3,1.9-11.5h-10c-4.5,0-7.1,0.1-10.2,0.4v-11c2.7,0.4,5.2,0.4,10,0.4h38.4
				c4.7,0,7.3-0.1,10.2-0.4v11c-3.2-0.4-5.7-0.4-10.1-0.4h-16.8c-0.6,4.4-1.1,7.1-1.9,11.5H742c4,0,6.3-0.1,9-0.3
				c-0.2,2.6-0.4,5.1-0.4,8.1v21.7h1.7c4.7,0,6.6-0.1,9.4-0.4v11.3c-3.4-0.4-6.1-0.5-10.3-0.5h-45c-3.8,0-6.9,0.1-10.4,0.5v-11.3
				c2.9,0.4,4.8,0.4,10,0.4H709.5z M739.4,235.5v-19.4H727c-1.7,7.6-3.4,13.6-5.3,19.4H739.4z"/>
			<path fill="#37393D" d="M787.2,205.6c-3.2,0-5,0.1-7.2,0.2v-6.1c-0.9,0.8-1.4,1.2-2.7,2.2c-2.2-3.7-3.5-5.3-6.2-8.3
				c3.5-2.4,5.2-4,7.1-6.4c1.7-2.3,2.8-4.4,3.5-6.7l10.8,1.4l-1.4,2.7h7.4c3.5,0,5.1-0.1,6.8-0.4v5.3c2.8-3,4.2-5.5,4.9-9L821,182
				c-0.4,0.9-0.8,1.9-1.2,2.7H831c4.2,0,5.7-0.1,8.1-0.4v9.5c-2.2-0.3-4.1-0.4-7.5-0.4h-4.2c0.9,1.4,1,1.7,1.8,3l-9.7,1.3
				c-0.9-1.9-1.2-2.5-2.2-4.3H815c-1.7,2.4-2.4,3.2-4.5,5.2v0.1h14.7c3.5,0,5.3-0.1,7.3-0.3c-0.2,1.4-0.3,2.5-0.3,5.5v3.4h0.9
				c2.3,0,3.7-0.1,5.6-0.4v8.3c-1.7-0.3-3-0.4-6-0.4h-0.6v2.8c0,3.5,0,4.3,0.2,5.5c-1.8-0.1-4.3-0.2-7.1-0.2h-14.9v2h16.4
				c3.8,0,5.6-0.1,7.8-0.3v7.2c-2.4-0.2-4.2-0.3-7.8-0.3h-16.4v2h19.7c3.5,0,6.2-0.1,8.6-0.4v8.3c-2.6-0.3-5.3-0.4-9.1-0.4h-19.1
				c0,4.1,0.1,5.5,0.4,7.9h-11.6c0.3-2.4,0.4-4.2,0.4-7.9h-17.8c-3.9,0-6.6,0.1-9.1,0.4v-8.3c2.6,0.2,5.3,0.4,8.6,0.4h18.4v-2h-15.3
				c-3.6,0-5.5,0.1-7.8,0.3v-7.2c2.2,0.2,4.1,0.3,7.8,0.3h15.3v-2h-12.6c-3,0-5.4,0.1-7.2,0.2v-6.8c1.9,0.1,3.7,0.2,7.2,0.2h12.6
				v-2.1h-19.4c-3.2,0-5.3,0.1-7.7,0.4v-7.8c2.4,0.2,5.1,0.4,8.6,0.4h18.4v-2H787.2z M785.8,193.5c-1.6,2.1-2.9,3.5-4.6,5.2
				c1.4,0.1,3.5,0.1,6,0.1h12.5c-0.1-1-0.1-1.5-0.3-2.4l-9.4,1.3c-0.8-1.9-1.1-2.6-1.9-4.2H785.8z M797.9,193.5
				c0.6,1,0.9,1.6,1.6,2.8h7.1c-1.4-1.2-2.1-1.8-3.5-2.7c-0.8-0.1-1.2-0.1-1.7-0.1H797.9z M821.6,205.6h-11.2v2h11.2V205.6z
				 M821.6,216.8v-2.1h-11.2v2.1H821.6z"/>
		</g>
		<g>
			<path fill="#37393D" d="M25.3,153.2c0-3.2-0.1-4.4-0.3-6.4h9.6c-0.3,1.8-0.3,3.1-0.3,6v2.7h14.5c2.9,0,4.3-0.1,6-0.2
				c-0.2,1.8-0.2,2.8-0.2,5.4v18.8c0,3.2,0.1,4.5,0.3,6.2h-9.1v-2.9H34.3v10c0,3.6,0.1,5.6,0.4,7.6h-9.7c0.3-2.3,0.4-4.2,0.4-7.6
				v-10H14.4v2.9H5.3c0.2-1.7,0.3-3.4,0.3-6.2v-18.8c0-2.4-0.1-3.7-0.2-5.4c2,0.2,3.2,0.2,5.9,0.2h14.1V153.2z M14.4,163.7v10.7
				h10.9v-10.7H14.4z M45.8,174.4v-10.7H34.3v10.7H45.8z"/>
			<path fill="#37393D" d="M81.8,152.1c0-2.4-0.1-3.7-0.3-5.3h9.9c-0.3,1.6-0.3,2.9-0.3,5.3v2.7h14.2c2.7,0,5.6-0.2,7.5-0.4v9
				c-2.4-0.3-4.9-0.4-7.5-0.4H91v8.1h10.7c3.1,0,4.3-0.1,5.9-0.2c-0.2,1.7-0.3,3.2-0.3,6v15.8c0,3.2,0.1,5.5,0.3,7.1h-9.1v-2.5H75.2
				v2.5h-9.2c0.2-1.8,0.3-4,0.3-7.1v-15.8c0-2.7-0.1-4.3-0.3-6c1.7,0.2,3.1,0.2,5.9,0.2h9.9v-8.1H68.4c-2.6,0-5.3,0.1-7.5,0.4v-9
				c1.9,0.2,4.8,0.4,7.5,0.4h13.4V152.1z M75.1,189.4h23.4v-10.1H75.1V189.4z"/>
			<path fill="#37393D" d="M121.7,161.4c4.1,2.7,5.7,3.9,9.1,6.9l-5.5,6.9c-3.1-3.1-5.2-4.7-9.3-7.4L121.7,161.4z M129,181.5
				c-1,5-2.5,10.8-3.7,14.1c-0.7,1.8-1.1,3-1.4,3.6c-0.2,0.7-0.2,0.7-0.4,1.2l-7.2-6.7c2.7-4.6,4.1-8.7,6-16.9L129,181.5z
				 M144.4,174.8c0-0.5,0-0.6,0.1-1.7h-8.5c-1.8,0-3.1,0.1-4.9,0.1c0.2-1.5,0.2-2.1,0.2-4.4v-4.9c0-2.6-0.1-3.5-0.2-4.8
				c1.4,0.1,2.7,0.2,4.7,0.2h1.4v-2h-4c-1.2,0-1.9,0.1-3.2,0.2v-1.6l-4.3,4.4c-2.7-2.9-4.8-4.7-8.6-7.3l6-5.8c3,1.9,4.4,2.9,6.9,5.1
				v-2.4c1.6,0.2,2.6,0.2,4.8,0.2h2.3v-0.3c0-1.4-0.1-1.9-0.2-2.9h8.5c-0.2,1-0.2,1.5-0.2,2.9v0.3h7.1v-0.3c0-1.3-0.1-1.9-0.2-2.9
				h8.5c-0.2,1-0.2,1.5-0.2,2.9v0.3h3.2c2.7,0,4.1-0.1,5.7-0.3v7.7c-1.7-0.2-3.2-0.2-5.7-0.2h-3.2v2h1.4c2.2,0,3.7-0.1,5-0.2
				c-0.2,1.4-0.2,2.6-0.2,4.6v4.9c0,2.1,0.1,3.3,0.2,4.6c-1.6-0.1-3-0.2-4.9-0.2h-9.2c0,0.8,0,1.1-0.1,1.7h10c2.8,0,4.2-0.1,5.6-0.2
				v6.5c-1.6-0.2-3.4-0.2-5.6-0.2H152c-0.1,1.1-0.2,1.2-0.2,1.7h11.7c2.7,0,4-0.1,5.6-0.2v6.8c-1.6-0.2-3.1-0.2-5.6-0.2h-7.3
				c3.5,2.2,7.5,3.2,13.9,3.8c-1.4,2.6-2.2,4.5-3.2,8.1c-4.6-0.9-7.7-1.9-10.7-3.4c-3-1.5-6-3.8-8-6c-1.6,2.2-3.7,3.9-6.4,5.5
				c-2.9,1.6-5.3,2.5-10.7,3.9c-1.2-3.2-2-4.8-4.1-7.6c6.7-1,9.8-2,12.6-4.4h-5.3c-2.2,0-3.5,0.1-5,0.2v-6.8
				c1.1,0.2,2.3,0.2,5.7,0.2h8.4c0.2-0.9,0.3-1.1,0.4-1.7h-8.3c-2.7,0-3.7,0.1-5,0.2v-6.5c1.4,0.2,2.9,0.2,5.3,0.2H144.4z
				 M139.1,165.1v2.4h5.3v-2.4H139.1z M152.3,157.3h-7.1v2h7.1V157.3z M152.5,167.5h5.8v-2.4h-5.8V167.5z"/>
			<path fill="#37393D" d="M173.7,155.7c1.4,0.2,2.4,0.3,4.6,0.3h11.6c2.9,0,4-0.1,4.7-0.3v7.7c-1.2-0.2-1.8-0.2-4.6-0.2h-11.7
				c-2,0-3.3,0.1-4.6,0.2V155.7z M183.1,200.1h-8.2c0.2-1.8,0.3-3.7,0.3-5.6v-9.3c0-1.7-0.1-2.9-0.2-4.3c1.3,0.1,2.4,0.2,4.3,0.2
				h11.6c2,0,2.6,0,3.5-0.2c-0.1,1-0.1,1.7-0.1,3.8v10.3c0,2.3,0,3.1,0.2,4.2h-7.7v-1.5h-3.6V200.1z M175.5,147.7
				c1.5,0.2,2.4,0.2,5.1,0.2h7.9c2.7,0,3.6-0.1,5.2-0.2v6.6c-1.8-0.2-2.6-0.2-5.2-0.2h-7.9c-2.2,0-3.6,0.1-5.1,0.2V147.7z
				 M175.6,165c1.1,0.1,1.6,0.1,3.4,0.1h11.4c1.8,0,2.2,0,3.2-0.1v6.4c-1.1-0.1-1.5-0.1-3.2-0.1H179c-1.8,0-2.3,0-3.4,0.1V165z
				 M175.6,173c1.1,0.1,1.6,0.1,3.4,0.1h11.3c1.8,0,2.2,0,3.3-0.1v6.4c-1.1-0.1-1.5-0.1-3.4-0.1h-11.3c-1.7,0-2.3,0-3.3,0.1V173z
				 M182.9,191.1h3.7v-3.8h-3.7V191.1z M194.7,168.8c1.8,0.2,2.6,0.3,5.8,0.3c0.6-1.5,0.7-2,1.2-3.4h-0.8c-1.5,0-2.7,0.1-3.9,0.2
				v-7.7c1.1,0.1,2.3,0.2,4.3,0.2h2.7c0.3-1.1,0.3-1.1,0.7-2.8H202c-3,0-4.4,0.1-6.3,0.2v-8.1c2.2,0.2,4.4,0.3,7,0.3h16.7
				c2.8,0,5.1-0.1,7-0.3v8.1c-1.9-0.2-3.4-0.2-6.5-0.2H213l-0.7,2.6l-0.1,0.2h6.7c1.8,0,2.9-0.1,4.1-0.2c-0.1,1.1-0.2,2.1-0.2,3.9v7
				c1.9,0,2.6-0.1,4.1-0.3v8.2c-1.7-0.2-2.9-0.2-5.6-0.2h-21.2c-2.7,0-3.7,0.1-5.6,0.2V168.8z M205.3,200.1h-8.5
				c0.2-1.9,0.2-3.7,0.2-6v-12.1c0-1.4-0.1-2.4-0.2-3.4c1.2,0.1,2.6,0.2,4.6,0.2h19c2.4,0,3.3-0.1,4.2-0.2c-0.1,1.2-0.2,2.6-0.2,4.2
				v11.3c0,2.6,0.1,4.4,0.3,5.8h-8.7v-2.2h-10.8V200.1z M205.3,190.3h10.8V186h-10.8V190.3z M214.6,169.1v-3.4h-4.4
				c-0.3,1.2-0.5,1.7-1.1,3.4H214.6z"/>
		</g>
		<g>
			<path fill="#3A3C3F" d="M444,50.5v3.3h2.7v7.6h-5.4v1.2h-1.8v-8.8h2.6v-3.3h-3.8v-1.8h3.8v-3c-1,0.2-2.1,0.5-3.1,0.6
				c-0.1-0.4-0.4-1.2-0.6-1.6c2.7-0.5,5.8-1.4,7.5-2.3l1.6,1.6c-0.1,0.1-0.3,0.1-0.5,0.1c-0.7,0.3-1.6,0.7-2.5,1h0
				c0,0.2-0.2,0.3-0.5,0.3v3.2h3.7v1.8H444z M444.8,59.7v-4h-3.5v4H444.8z M449.5,57.8c-0.2,1.6-0.5,3.4-1.3,4.5l-1.4-0.7
				c0.7-1,1.1-2.7,1.3-4.2L449.5,57.8z M458.6,53.7h-8.4v1.1h6.7l0.4,0l1,0.1c0,0.1,0,0.3,0,0.5c-0.2,4.5-0.5,6.2-1,6.8
				c-0.5,0.5-1,0.6-2.5,0.6c-0.3,0-0.6,0-1,0c0-0.5-0.2-1.1-0.4-1.5c0.8,0.1,1.5,0.1,1.8,0.1c0.3,0,0.5,0,0.6-0.2
				c0.3-0.4,0.5-1.6,0.7-4.8h-8.1V44.5h2.9c0.2-0.7,0.4-1.4,0.5-2l2.4,0.5c0,0.2-0.2,0.2-0.5,0.2c-0.1,0.4-0.3,0.8-0.5,1.3h3.8v6.6
				h-6.8v1.1h8.4V53.7z M450.5,61.3c0-1-0.2-2.4-0.4-3.6c1-0.2,1.1-0.2,1.2-0.2c0.3,1.1,0.5,2.6,0.5,3.5L450.5,61.3z M455.1,46h-5
				v1.2h5V46z M450.2,49.7h5v-1.2h-5V49.7z M452.9,60.5c-0.1-0.8-0.5-2-0.9-3l1.1-0.3c0.4,0.9,0.8,2.1,1,2.9L452.9,60.5z
				 M454.8,56.8c0.5,0.7,1,1.7,1.3,2.3l-1.1,0.5c-0.2-0.7-0.7-1.6-1.2-2.3L454.8,56.8z"/>
			<path fill="#3A3C3F" d="M465.7,50.5v3.3h2.7v7.6h-5.4v1.2h-1.8v-8.8h2.6v-3.3h-3.8v-1.8h3.8v-3c-1,0.2-2.1,0.5-3.1,0.6
				c-0.1-0.4-0.4-1.2-0.6-1.6c2.7-0.5,5.8-1.4,7.5-2.3l1.6,1.6c-0.1,0.1-0.3,0.1-0.5,0.1c-0.7,0.3-1.6,0.7-2.5,1h0
				c0,0.2-0.2,0.3-0.5,0.3v3.2h3.7v1.8H465.7z M466.5,59.7v-4h-3.5v4H466.5z M471.2,57.8c-0.2,1.6-0.5,3.4-1.3,4.5l-1.4-0.7
				c0.7-1,1.1-2.7,1.3-4.2L471.2,57.8z M480.3,53.7h-8.4v1.1h6.7l0.4,0l1,0.1c0,0.1,0,0.3,0,0.5c-0.2,4.5-0.5,6.2-1,6.8
				c-0.5,0.5-1,0.6-2.5,0.6c-0.3,0-0.6,0-1,0c0-0.5-0.2-1.1-0.4-1.5c0.8,0.1,1.5,0.1,1.8,0.1c0.3,0,0.5,0,0.6-0.2
				c0.3-0.4,0.5-1.6,0.7-4.8H470V44.5h2.9c0.2-0.7,0.4-1.4,0.5-2l2.4,0.5c0,0.2-0.2,0.2-0.5,0.2c-0.1,0.4-0.3,0.8-0.5,1.3h3.8v6.6
				h-6.8v1.1h8.4V53.7z M472.2,61.3c0-1-0.2-2.4-0.4-3.6c1-0.2,1.1-0.2,1.2-0.2c0.3,1.1,0.5,2.6,0.5,3.5L472.2,61.3z M476.9,46h-5
				v1.2h5V46z M471.9,49.7h5v-1.2h-5V49.7z M474.7,60.5c-0.1-0.8-0.5-2-0.9-3l1.1-0.3c0.4,0.9,0.8,2.1,1,2.9L474.7,60.5z
				 M476.6,56.8c0.5,0.7,1,1.7,1.3,2.3l-1.1,0.5c-0.2-0.7-0.7-1.6-1.2-2.3L476.6,56.8z"/>
		</g>
		<g opacity="5.000000e-02">
			<g>
				<path fill="#CFD8DC" d="M614.7,334.8l5.8-2l2,9.2c-7.2,3.4-14.8,6.6-19.9,8.8c-0.1,0.8-0.6,1.4-1.2,1.6l-4.6-11.6
					c2.3-0.7,5-1.5,8.1-2.6v-19.3h-6.4v-10h6.4v-16.5l12,0.7c-0.1,0.8-0.7,1.2-2.1,1.5v14.4h6.2v10h-6.2V334.8z M635.9,345.5
					c0,4.5,0.5,5,4.8,5h12.3c3.8,0,4.5-1.5,5.2-8.5c2.3,1.5,6.4,3.2,9.2,3.8c-1.2,10.5-4.3,14.1-13.4,14.1h-14.3
					c-10.9,0-13.9-3.1-13.9-14.4v-17.1l-4.9,2.1l-3.9-9.4l8.8-3.7V299l12.2,0.7c-0.1,0.8-0.7,1.2-2.1,1.5V313l3.9-1.7v-19.7
					l12.1,0.7c-0.1,0.8-0.7,1.2-2.1,1.5v13.4l5.2-2.2l2.1-1.4l8.3,3c-0.2,0.4-0.7,0.9-1.3,1.3c0,14.1-0.1,21.7-0.4,24.8
					c-0.3,6.9-4.7,8.1-11.7,8.1c-0.3-2.6-1.1-6.6-2.2-8.8c0.9,0.1,2.2,0.1,2.8,0.1c0.7,0,1.1-0.2,1.2-1.3c0.1-0.9,0.1-5,0.1-14.5
					l-4.2,1.8v25.6h-9.9v-21.3l-3.9,1.7V345.5z"/>
			</g>
			<g>
				<path fill="#CFD8DC" d="M740.9,320.7c-0.4,0.6-1.3,0.8-2.3,0.7c-2,3.2-5.7,7.9-8.3,10.7l-3.8-2.3c3.1,7,7.6,12.4,14.7,17.3
					c-2.4,1.9-5.3,5.3-6.5,8.1c-5.3-4.2-9.3-8.5-12.3-13.4v7.7c0,7.4-1.8,11.5-15.8,11.5c-0.4-2.8-2.1-7.4-3.6-10.2
					c3.2,0.1,6.5,0.1,7.6,0.1c1.1,0,1.5-0.4,1.5-1.5v-36.2h-16.3v-6.6h-6.6v10.7h6.8v1.9l8-3.5c2.6,3.8,5.5,8.9,6.6,12.4l-8.7,4
					c-0.9-3.4-3.4-8.5-5.8-12.5v7.4h-6.8v11.1l7.4-1.4l0.4,3.6c3.7-2,7.8-4.4,11.8-6.7l3.2,8.7c-5.1,3.7-10.8,7.5-14.7,9.9
					c0.1,0.7-0.3,1.4-0.9,1.8l-4-7c-7.2,1.6-14.1,3.1-18.9,4.1c-0.1,0.8-0.8,1.2-1.5,1.3l-2.6-11c2.7-0.4,5.9-0.9,9.5-1.5v-12.9
					h-7.4v-9.7h7.4v-10.7h-8V297h26v6.7H712v-12l12.4,0.5c-0.1,0.8-0.7,1.4-2.2,1.7v9.8h8.8c-2-2.1-4.9-4.6-7.4-6.4l5.8-5.4
					c3.1,2,7.2,5.3,9.2,7.5l-4.4,4.3h5.6v9.6h-17.6v2.6c0.7,3.4,1.5,6.4,2.4,9.3c2.3-3.2,4.6-7.2,6.1-10.3L740.9,320.7z"/>
			</g>
		</g>
		<g>
			<path fill="#37393D" d="M19.8,264.2c-3,0-4.9,0.1-6.8,0.2c0.1-2.8,0.2-3.3,0.2-5.6v-15.3c0-3.6-0.1-5.3-0.4-7.4H21
				c-0.3,2.2-0.3,4.1-0.3,7.2v14.5h34.1c2.5,0,4.1-0.1,6.2-0.2c-0.1,1.6-0.2,2.7-0.2,4.8v7.9c3.4,0,5.9-0.1,7.8-0.4v7.7
				c-2.2-0.3-4.6-0.4-8-0.4H45.5c2.8,2.6,5.4,4.1,9.5,5.3c4.4,1.4,9.3,2.4,14.3,2.6c-1.7,2.9-2.4,4.5-3,7.8
				c-7.4-1.3-12.4-2.8-17.3-5.4c-5-2.6-9-5.9-11.8-9.9c-2,3.1-4.7,6.1-8.2,8.4c-4.5,3.2-9.2,4.9-18.7,6.8c-0.7-2.8-1.3-4.1-3.3-7.4
				c10.5-1.1,16.6-3.4,21.3-8.2H16c-3.4,0-6.1,0.1-8.4,0.4v-7.7c2.2,0.3,4.6,0.4,8.1,0.4h16.7c0.6-1.8,0.9-4,0.9-6H19.8z
				 M61.2,247.8c0,2.3,0.1,3.9,0.2,5.6c-1.8-0.1-3.6-0.2-6.1-0.2H32.1c-2.3,0-4.2,0.1-5.9,0.2c0.1-1.8,0.2-3.2,0.2-4.8v-11.5
				c0-2.4-0.1-3.6-0.3-5.3c2.2,0.2,3.7,0.3,6.6,0.3h22.1c3,0,4.7-0.1,6.7-0.3c-0.2,1.8-0.3,3-0.3,5.5V247.8z M33.7,238.4v8.6h20.2
				v-8.6H33.7z M40.9,264.2c0,0.2,0,0.2-0.1,1.7c-0.1,0.6-0.5,3.2-0.7,4.3h13.4v-6H40.9z"/>
			<path fill="#37393D" d="M7.2,308.5c1.6,0.3,2.9,0.3,5.4,0.3h12.8c2.8,0,4.2-0.1,5.7-0.3v7c-1.5-0.2-2.5-0.3-5.4-0.3H12.6
				c-2.4,0-3.8,0.1-5.4,0.3V308.5z M9.3,342.9c0-2.1-0.1-3.6-0.3-5.3c1.7,0.2,3.2,0.3,5.2,0.3h11.6c2.6,0,3.4,0,4.5-0.2
				c-0.1,1.2-0.2,2.4-0.2,4.9v11.3c0,2.5,0.1,3.5,0.3,5.3h-6.6v-2.3h-7.8v3.2h-7c0.3-2.1,0.4-4.2,0.4-6.6V342.9z M9.4,299.1
				c1.7,0.3,2.9,0.3,5.6,0.3h9.1c2.7,0,3.9-0.1,5.6-0.3v6.6c-2.2-0.2-2.6-0.2-5.6-0.2h-9.1c-2.4,0-3.9,0.1-5.6,0.2V299.1z
				 M9.6,318.6c1.4,0.1,2.2,0.2,4.5,0.2h11.4c2.2,0,3.1-0.1,4.3-0.2v6.3c-1.7-0.2-2.1-0.2-4.3-0.2H14c-2.2,0-3.1,0.1-4.5,0.2V318.6z
				 M9.6,328.1c1.4,0.1,2.2,0.2,4.5,0.2h11.4c2.2,0,3.1-0.1,4.3-0.2v6.2c-1.7-0.2-2.1-0.2-4.5-0.2H14c-2,0-3.1,0.1-4.4,0.2V328.1z
				 M15.9,350.7h7.8v-7.2h-7.8V350.7z M38.8,324.9c1.2-3.2,1.6-4.2,2.4-7.2h-1.7c-2,0-3.7,0.1-5.3,0.3v-6.9c1.6,0.2,3.2,0.3,5.4,0.3
				h3.4c0.7-2.7,0.7-2.7,1.2-5.3h-4.4c-3.2,0-5,0.1-7.1,0.3v-7.2c2.3,0.2,4.5,0.3,7.6,0.3H61c3.4,0,5.7-0.1,7.5-0.3v7.2
				c-2.1-0.3-3.9-0.3-7.2-0.3h-9.7c-0.7,2.6-1.1,4.3-1.4,5.3h8c2.4,0,3.9-0.1,5.3-0.3c-0.2,1.5-0.3,2.8-0.3,5.3v8.5
				c3.2,0,4.1-0.1,6.1-0.4v7.2c-2.2-0.3-3.8-0.3-6.6-0.3h-25c-3.1,0-4.7,0.1-6.7,0.3v-7.2c2,0.3,3.3,0.3,6.7,0.3H38.8z M34.8,339.9
				c0-2-0.1-3.3-0.2-4.8c1.7,0.1,3,0.2,5.7,0.2h20.2c3,0,4.1-0.1,5.5-0.2c-0.2,1.4-0.3,3.2-0.3,5.4v12.8c0,2.8,0.1,5,0.3,6.7h-7.7
				v-3H42v3h-7.5c0.2-1.9,0.3-4.1,0.3-6.8V339.9z M42,350.4h16.4v-8.8H42V350.4z M56.4,324.9v-7.2h-7.9c-0.9,3.3-1.2,4.1-2.4,7.2
				H56.4z"/>
		</g>
		<g opacity="4.000000e-02">
			<path fill="#CFD8DC" d="M25.7,48.5c-0.3,2.2-0.4,4-0.4,7.9v28.6c0,3.7,0.1,5.7,0.4,7.9H14c0.3-2.1,0.4-4.3,0.4-7.9V56.5
				c0-4-0.1-5.6-0.4-7.9H25.7z"/>
			<path fill="#CFD8DC" d="M32.4,93c0.3-2.3,0.4-4.8,0.4-7.9V56.2c0-2.9-0.1-5.3-0.4-7.8c2.5,0.1,4.4,0.2,7.9,0.2h11.7
				c10.6,0,16.4,5.1,16.4,14.4c0,9.5-6.1,15.2-16.4,15.2h-8.4v6.8c0,3.2,0.2,5.8,0.4,8.1H32.4z M51.4,69c3.7,0,5.9-2.1,5.9-5.8
				c0-3.7-2.1-5.6-5.9-5.6h-8V69H51.4z"/>
			<path fill="#CFD8DC" d="M100.2,93c-0.4-2.6-0.7-4-1.3-5.8l-1.4-4.5H82.3l-1.4,4.5c-0.7,2.1-1.1,3.8-1.3,5.8H67
				c0.8-1.6,1.3-2.9,2.6-6.5l11.5-32.2c1-2.6,1.4-4.2,1.7-5.8h13.9c0.4,1.5,0.7,2.9,1.8,5.8l11.6,32.2c1,2.8,1.9,5,2.6,6.5H100.2z
				 M89.8,57.7l-5,16h10L89.8,57.7z"/>
		</g>
		<g>
			<path fill="#37393D" d="M887.1,158.1c-3.6,0-5.9,0.2-8.9,0.5v-7.5c2.5,0.3,5,0.5,8.9,0.5h51.9c3.8,0,6.4-0.2,9-0.5v7.5
				c-2.9-0.3-5.3-0.5-9-0.5h-37c-0.6,1.1-1,1.9-1.3,2.4h31c3.8,0,5.5-0.1,7.6-0.3c-0.1,0.2-0.1,0.2-0.2,0.7c0,0.1,0,0.2,0,0.4
				c-0.1,0.2-0.2,0.6-0.2,1.1c-1.5,9.1-2.3,12-3.9,14.2c-2,2.7-4.8,3.4-13.6,3.4c-2.8,0-7.5-0.2-11.4-0.4c-0.4-3.2-0.7-4.3-2.1-7.2
				c6.1,0.7,10.4,1,14.4,1c3.2,0,4.6-0.2,5.3-0.9c0.8-0.8,1.4-2.7,1.9-5.8h-32.3c-2.5,0-5.6,0.2-8.7,0.4c0.9-1.5,1.4-2.5,1.7-3.1
				l2.7-5.9H887.1z M884.6,119.7c0-2.6-0.1-4-0.3-5.9c2.5,0.2,4.3,0.3,8,0.3H905c1.8-2.4,2.6-4,3.1-5.8l8.8,1.5
				c-0.9,1.6-1.7,2.7-2.9,4.3h20.8c3.4,0,5-0.1,7.6-0.3c-0.2,1.9-0.3,3.1-0.3,5.7v24.2c0,2.4,0.1,3.7,0.3,5.8
				c-2.6-0.2-4.3-0.3-7.6-0.3h-42.5c-3.7,0-5.5,0.1-8,0.3c0.2-1.9,0.3-3.4,0.3-6V119.7z M892.4,143h4.4c-1.7-2.3-2.2-2.9-3.5-4
				c5.3-1.6,8.2-2.9,11.8-5h-5.6c-2.9,0-3.8,0-4.9,0.1v-4.8c2.9,0.2,3.9,0.2,4.9,0.2h1.7c-0.8-1.1-1.4-1.7-2.7-2.9l4.5-1.4
				c-2.1,0.1-3.1,0.1-5.2,0.1c-0.5-1.5-0.8-1.9-2.4-3.6c16.7,0,23.3-0.3,29.1-1.5h-32V143z M909.5,139c0.1-1.4,0.1-2.4,0.2-3.3
				c-3.1,2.9-6.1,4.7-12.7,7.3h12.5V139z M909.5,125c-2.4,0.2-2.6,0.2-5.9,0.2c1.5,1.1,2.2,1.8,3,2.9l-4.3,1.4h7.2V125z
				 M923.3,129.5l-3.7-1.4c2-1.5,3-2.5,4-4c-3.1,0.3-3.7,0.3-7.1,0.5v4.8H923.3z M928.9,143c-2.2-1.2-6.6-3.2-12.3-5.5v5.5H928.9z
				 M918.7,134c3.7,1,4.3,1.2,14.2,4.8l-2.5,4.2h3.9v-22.8h-8l4.1,3.3c-1.4,0.1-2.1,0.2-4,0.4c-0.5,0.1-1.5,0.2-2.1,0.2l4.7,1.8
				c-1.4,1.5-2.4,2.4-4,3.6h2.3c0.9,0,1.9-0.1,5-0.2v4.8c-1.4-0.1-2.3-0.1-5.1-0.1H918.7z"/>
			<path fill="#37393D" d="M901.7,224c-0.8,0.4-0.8,0.4-3.4,1.4c-0.6,0.3-0.9,0.4-3,1.2v21.7c0,6-2.1,7.5-9.9,7.5
				c-1.8,0-3.1,0-5.3-0.2c-0.4-3.7-0.7-5-1.8-7.9c2.7,0.4,4.6,0.5,6.4,0.5c2.2,0,2.7-0.4,2.7-2.3v-16.4c-5.9,2-6.7,2.3-7.9,2.7
				l-1.1-8.6c2.3-0.2,3.1-0.4,9.1-2.2v-13.9h-2.8c-2,0-3.4,0.1-5.5,0.3v-8.2c2,0.4,3.4,0.5,5.6,0.5h2.7v-6.3c0-3.8-0.1-5.5-0.5-7.8
				h8.9c-0.3,2.1-0.4,4-0.4,7.7v6.3h2.1c1.6,0,2.8-0.1,4-0.3v7.9c-1.4-0.2-2.5-0.2-4-0.2h-2.1v11.1c1.9-0.8,3-1.1,6.4-2.5v5.2
				c2.1,0.3,3.4,0.4,6.1,0.4h4c0.1-2.4,0.1-2.6,0.1-3.3v-9.4h-1.7c-2.9,0-4.9,0.1-6.5,0.4v-8.2c1.8,0.3,3.7,0.4,6.7,0.4h4.3
				c-2.1-5.3-3.4-7.6-6.8-12.3l7.2-3.2c3.6,4.5,4.9,6.6,7.5,12.4l-6.6,3.1h11.4c3.2-5.8,4.8-9.6,6.6-15.9l8.5,2.7
				c-2.4,5.7-4.4,9.8-6.4,13.2h3.9c3.3,0,5.4-0.2,7.5-0.4v8.2c-2.1-0.3-4-0.4-6.7-0.4h-2.7v12.7h3.6c3.2,0,5.2-0.2,7-0.5v8.4
				c-2.4-0.2-4.3-0.4-7.1-0.4h-3.5v18.6c0,3.4,0.2,5.8,0.5,8.3h-9.2c0.3-2.4,0.5-4.9,0.5-8.3v-18.6h-10
				c-0.8,12.2-4.9,19.5-15.2,26.8c-2-3.1-3.5-4.8-6.1-6.9c9.1-5.9,12.3-10.8,13-19.9H908c-3,0-4.5,0.1-6.3,0.4V224z M920.2,209.1
				v9.4c0,2,0,2.1-0.1,3.3h9.7v-12.7H920.2z"/>
		</g>
		<g opacity="5.000000e-02">
			<path fill="#CFD8DC" d="M840.5,80.7c-1.7-0.2-3.1-0.3-6.5-0.3h-12.4c-3,0-4.1,0-5.8,0.1c0.2-1.6,0.3-3,0.3-5.7V53.4
				c0-2.4-0.1-3.8-0.3-5.7c1.6,0.1,2.7,0.1,5.8,0.1h12.5c2.7,0,4-0.1,5.8-0.3v7.3c-1.8-0.2-3.2-0.3-5.8-0.3h-10.2v5.8h8.5
				c2.6,0,3.5,0,5.9-0.3v7.3c-1.8-0.2-3.2-0.3-5.9-0.3h-8.5v6.6h10.1c3,0,4.7-0.1,6.4-0.3V80.7z"/>
			<path fill="#CFD8DC" d="M844.9,80.5c0.2-1.8,0.3-3.5,0.3-5.9V62.5c0-3-0.1-4.4-0.3-5.9h7.8v1.6c0,0.2,0,0.2,0,0.5
				c0,0,0,0.1,0,0.2c0,0,0,0.1,0,0.2c2-2.2,4.4-3.2,7.5-3.2c2,0,3.7,0.5,5,1.4c0.7,0.5,1.1,1,1.6,2c2.4-2.4,4.8-3.4,8.2-3.4
				c5.6,0,8.5,3.1,8.5,9v9.7c0,2.4,0.1,4,0.3,5.9h-8.2c0.2-1.8,0.3-3.3,0.3-5.9v-8.1c0-2.9-0.9-4.1-3.1-4.1c-2,0-3.8,1.6-4.8,4.2v8
				c0,2.4,0.1,4,0.3,5.9h-8.2c0.2-1.8,0.3-3.4,0.3-5.9v-8.1c0-1.6-0.2-2.4-0.7-3.1c-0.4-0.6-1.2-1-2.2-1c-2.1,0-3.9,1.5-5,4.2v7.9
				c0,2.5,0.1,4,0.3,5.9H844.9z"/>
			<path fill="#CFD8DC" d="M887.6,68.5c0-7.8,5-12.8,12.9-12.8c7.9,0,12.9,5,12.9,12.8c0,7.8-5.2,13-13,13
				C892.7,81.4,887.6,76.4,887.6,68.5z M895.1,68.4c0,4.4,2,7,5.5,7c3.4,0,5.4-2.6,5.4-6.9c0-4.4-2-7-5.3-7
				C897.2,61.5,895.1,64.1,895.1,68.4z"/>
			<path fill="#CFD8DC" d="M927.3,56.5c-0.2,1.4-0.3,3.1-0.3,5.9v17.7c0,2.5-0.7,4.3-2,5.5c-1.6,1.5-4.3,2.4-7.4,2.4
				c-4.3,0-7.3-1.3-9.1-3.9l6.5-2.8c0.5,1.3,1.2,1.7,2.4,1.7c1.4,0,2.2-0.7,2.2-2.2l0-18.5c0-2.7-0.1-4.3-0.3-5.9H927.3z
				 M927.2,47.8v5.9h-8v-5.9H927.2z"/>
			<path fill="#CFD8DC" d="M941,56.5c-0.2,1.6-0.3,3.2-0.3,5.9v12.1c0,2.1,0.1,4.2,0.3,5.9h-8.2c0.2-1.9,0.3-3.4,0.3-5.9V62.5
				c0-2.5-0.1-4.2-0.3-5.9H941z M940.8,47.8v5.9h-8v-5.9H940.8z"/>
		</g>
		<g opacity="5.000000e-02">
			<g>
				<path fill="#CFD8DC" d="M787,325.1c0,6.9-1.2,12.1-3.5,15.8c-2.4,3.7-5.9,5.5-10.5,5.5c-1.9,0-3.5-0.4-4.9-1.1
					c-1.4-0.8-2.6-1.8-3.7-3.2v20.3h-11.4v-60.6h10.6l0.4,4c1.1-1.5,2.3-2.7,3.8-3.6c1.5-0.8,3.2-1.3,5.2-1.3
					c4.7,0,8.3,1.7,10.6,5.2c2.4,3.5,3.5,8.8,3.5,16V325.1z M775.5,322.2c0-2.1-0.1-3.8-0.3-5.3c-0.2-1.5-0.6-2.7-1.1-3.6
					s-1.1-1.6-1.9-2c-0.8-0.4-1.7-0.6-2.9-0.6c-1.2,0-2.2,0.3-3.1,0.8c-0.8,0.5-1.5,1.2-2,2.2v20.5c0.5,0.9,1.2,1.6,2,2.1
					c0.8,0.5,1.9,0.7,3.2,0.7c2.3,0,3.8-1,4.7-2.9c0.9-1.9,1.3-4.9,1.3-8.9V322.2z"/>
			</g>
			<g>
				<path fill="#CFD8DC" d="M813.4,294.1h-25.5v-6.8h25.5V294.1z M806.2,345.6h-11.4v-43.8h11.4V345.6z"/>
			</g>
			<g>
				<path fill="#CFD8DC" d="M826.1,301.8l0.3,4.3c1.3-1.7,2.8-2.9,4.4-3.8c1.7-0.9,3.6-1.3,5.7-1.3c1.7,0,3.3,0.3,4.7,0.9
					c1.4,0.6,2.7,1.5,3.7,2.9c1,1.3,1.8,3,2.4,5.2c0.6,2.1,0.8,4.7,0.8,7.8v27.8h-11.5v-27.9c0-1.4-0.1-2.6-0.3-3.5
					c-0.2-0.9-0.5-1.6-1-2.2c-0.4-0.5-0.9-0.9-1.6-1.1c-0.6-0.2-1.3-0.3-2.2-0.3c-1.1,0-2,0.3-2.8,0.8c-0.8,0.6-1.5,1.3-2,2.3v31.8
					h-11.5v-43.8H826.1z"/>
			</g>
			<g>
				<path fill="#CFD8DC" d="M870.2,327.2l6-25.4h12.2L874,352.1c-0.3,1.1-0.8,2.3-1.3,3.6c-0.6,1.3-1.3,2.5-2.2,3.6
					c-0.9,1.1-2.1,2-3.5,2.8c-1.4,0.7-3.1,1.1-5.1,1.1c-0.5,0-0.9,0-1.3-0.1c-0.4,0-0.8-0.1-1.1-0.1c-0.3-0.1-0.7-0.1-1.1-0.2
					c-0.4-0.1-0.8-0.2-1.2-0.3l0-8.9c0.2,0,0.4,0,0.7,0c0.2,0,0.5,0,0.7,0c0.9,0,1.8-0.1,2.4-0.3c0.7-0.2,1.2-0.5,1.7-0.8
					c0.5-0.4,0.9-0.9,1.2-1.4c0.3-0.6,0.6-1.3,0.8-2.1l0.9-3l-12.6-44.2h12.3L870.2,327.2z"/>
			</g>
			<g>
				<path fill="#CFD8DC" d="M912.9,294.1h-25.5v-6.8h25.5V294.1z M905.6,345.6h-11.4v-43.8h11.4V345.6z"/>
			</g>
			<g>
				<path fill="#CFD8DC" d="M925.5,301.8l0.3,4.3c1.3-1.7,2.8-2.9,4.4-3.8c1.7-0.9,3.6-1.3,5.7-1.3c1.7,0,3.3,0.3,4.7,0.9
					c1.4,0.6,2.7,1.5,3.7,2.9c1,1.3,1.8,3,2.4,5.2c0.6,2.1,0.8,4.7,0.8,7.8v27.8h-11.5v-27.9c0-1.4-0.1-2.6-0.3-3.5
					c-0.2-0.9-0.5-1.6-1-2.2c-0.4-0.5-0.9-0.9-1.6-1.1c-0.6-0.2-1.3-0.3-2.2-0.3c-1.1,0-2,0.3-2.8,0.8c-0.8,0.6-1.5,1.3-2,2.3v31.8
					h-11.5v-43.8H925.5z"/>
			</g>
		</g>
	</g>
</g>
<g id="Layer_3">
</g>
<g id="Layer_2">
</g>
</svg>
