<?xml version="1.0" encoding="utf-8"?>

<svg version="1.1" x="0px" y="0px" viewBox="0 0 36 36" enable-background="new 0 0 36 36" xml:space="preserve" xmlns="http://www.w3.org/2000/svg" xmlns:svg="http://www.w3.org/2000/svg">
<g>
	<path fill="#FFFFFF"
		d="M 32.4,0 H 3.6 C 1.8,0 0,1.8 0,3.6 V 32.4 C 0,34.2 1.8,36 3.6,36 H 32.4 C 34.2,36 36,34.2 36,32.4 V 3.6 C 36,1.8 34.2,0 32.4,0 Z M 30,31.2 L 18,31 6,31.2 5.8,27.8 16,27.6 v -3.6 C 12,23.8 9,22.7 7.2,20.8 4.3,17.8 4.8,13.6 4.8,9 v -1.8 h 3.6 v 1.8 C 8.4,12.9 8.1,16.1 10,18 11.2,19.2 12.9,19.8 16,20 v -14.6 h 4 v 14.6 C 23.1,19.8 24.8,19.2 26,18 27.9,16.1 27.6,12.9 27.6,9 v -1.8 h 3.6 v 1.8 C 31.2,13.6 31.7,17.8 28.8,20.8 27,22.7 24,23.8 20,24 v 3.6 L 30.2,27.8 z" />
</g>
</svg>
