<?xml version="1.0" encoding="utf-8"?>
<!-- Generator: Adobe Illustrator 19.1.0, SVG Export Plug-In . SVG Version: 6.00 Build 0)  -->
<svg version="1.1" xmlns="http://www.w3.org/2000/svg" xmlns:xlink="http://www.w3.org/1999/xlink" x="0px" y="0px"
	 viewBox="0 0 36.3 36.3" enable-background="new 0 0 36.3 36.3" xml:space="preserve">
<g id="Layer_1">
	<g id="ic_x5F_fileDownload">
	</g>
	<g id="ic_x5F_arrowForward_x0D_">
	</g>
</g>
<g id="Layer_3">
</g>
<g id="Layer_2">
	<path fill="#FFFFFF" d="M32.8,0.2H3.6c-1.9,0-3.4,1.5-3.4,3.4v29.2c0,1.9,1.5,3.4,3.4,3.4h29.2c1.9,0,3.4-1.5,3.4-3.4V3.6
		C36.2,1.7,34.6,0.2,32.8,0.2z M30.4,31.2l-0.5,0C29,31.2,21,31,18.3,31c-2.9,0-11.8,0.2-11.9,0.2l-0.5,0l0-1.7l-0.1-1.7l0.5,0
		c0.1,0,6.3-0.3,10.1-0.4v-3.7c-4.1-0.2-7-1.3-8.9-3.2c-2.9-3-2.7-7.3-2.6-11.9l0-1.3l3.6,0.1l0,1.4c-0.1,3.9-0.3,7.3,1.6,9.2
		c1.2,1.2,3.2,1.9,6.3,2.1V5.5H20V20c3-0.2,5.1-0.9,6.3-2.1c1.8-1.9,1.7-5.3,1.6-9.2l0-1.4l3.6-0.1l0,1.3c0.2,4.6,0.3,8.9-2.6,11.9
		c-1.9,1.9-4.8,3-8.9,3.2v3.7c3.7,0.1,10,0.4,10.1,0.4l0.5,0l-0.1,1.7L30.4,31.2z"/>
</g>
</svg>
