<?xml version="1.0" encoding="utf-8"?>
<!-- Generator: Adobe Illustrator 19.1.0, SVG Export Plug-In . SVG Version: 6.00 Build 0)  -->
<svg version="1.1" xmlns="http://www.w3.org/2000/svg" xmlns:xlink="http://www.w3.org/1999/xlink" x="0px" y="0px"
	 viewBox="0 0 360 38" enable-background="new 0 0 360 38" xml:space="preserve">
<g id="Layer_1">
	<g id="ic_x5F_fileDownload">
	</g>
	<g id="ic_x5F_arrowForward_x0D_">
	</g>
</g>
<g id="Layer_3">
	<g>
		<g>
			<path fill="#FFFFFF" d="M22.5,6.4c-0.8,0-1.3,0.1-1.7,0.1V4.6c0.6,0.1,1.2,0.1,2.3,0.1h5.8c1.1,0,1.8,0,2.4-0.1v1.9
				c-0.5-0.1-0.8-0.1-1.6-0.1v21.4c0,1.6,0,2.5,0.2,3.2h-2.1c0.1-0.8,0.2-1.6,0.2-3.2v-3.2c-1.1,0.4-3.8,1.1-5.6,1.5
				c-0.6,0.1-0.9,0.2-1.3,0.4l-0.4-2c0.4,0,0.8-0.1,2-0.3V6.4z M24.2,11h3.7V6.4h-3.7V11z M24.2,17.1h3.7v-4.5h-3.7V17.1z
				 M24.2,23.9c2.2-0.5,2.7-0.7,3.7-1v-4.3h-3.7V23.9z M34.3,22.6c-0.5,2.8-1.2,4.6-2.5,6.8l-1.5-1c0.7-1.1,1-1.6,1.4-2.8
				c0.5-1.3,0.7-2,0.9-3.5L34.3,22.6z M37.1,5.8c0.4-0.8,0.5-1.3,0.8-2.3l1.9,0.4c-0.3,0.8-0.5,1.2-0.8,1.9h5.5c1.2,0,1.9,0,2.5-0.1
				c-0.1,0.8-0.1,1.3-0.1,2.4v9.1c0,1.1,0,1.6,0.1,2.4c-0.8-0.1-1.3-0.1-2.5-0.1h-10c-1.2,0-1.7,0-2.5,0.1C32,19,32,18.3,32,17.3
				V8.2c0-1,0-1.8-0.1-2.5c0.7,0.1,1.3,0.1,2.5,0.1H37.1z M33.7,18.1H45V7.4H33.7V18.1z M44.3,10c-0.2,0.4-0.5,0.7-0.6,1.1
				c-0.5,0.9-1.2,1.8-2.1,2.7c0.9,0.7,1.3,1.1,2.5,2.2l-1.2,1.3c-1.2-1.3-1.6-1.7-2.5-2.4c-1.4,1.2-2.5,1.9-4.6,2.8
				c-0.4-0.7-0.6-0.9-1.2-1.3c2.2-0.8,3.2-1.4,4.6-2.5c-0.9-0.7-1.3-1-2.3-1.6c-0.6,0.5-0.9,0.7-1.7,1.4c-0.3-0.4-0.6-0.7-1.2-1
				c0.9-0.5,1.1-0.8,1.6-1.1c-0.5-0.2-0.5-0.3-1.1-0.6l1.1-1c0.5,0.3,0.6,0.3,1.1,0.6c0.8-1,1.2-1.4,1.8-2.7L40.1,8
				c-0.4,0.6-0.4,0.7-0.8,1.2h2.3c0.8,0,1.2,0,1.6-0.1L44.3,10z M37.5,22.2c-0.1,0.7-0.1,1.3-0.1,2.2v3.5c0,0.4,0.1,0.6,0.3,0.6
				c0.3,0.1,0.9,0.1,1.5,0.1c1.8,0,2.3-0.1,2.6-0.4c0.3-0.4,0.5-1.3,0.6-2.7c0.6,0.3,1,0.5,1.7,0.7c-0.2,2-0.5,2.9-1.1,3.4
				c-0.5,0.5-1.3,0.6-3.6,0.6c-3.3,0-3.8-0.3-3.8-1.8v-3.9c0-1,0-1.6-0.1-2.3H37.5z M37.7,19.8c1.9,1.1,3.1,2.1,4.6,3.6l-1.2,1.3
				c-1.4-1.6-2.6-2.7-4.5-3.8L37.7,19.8z M38.5,10.6c-0.2,0.3-0.3,0.4-0.5,0.6c0.9,0.6,1.5,1.1,2.4,1.7c0.8-0.7,1.1-1.1,1.8-2.3
				H38.5z M45.2,22.2c1.6,2.4,2.2,3.9,3.2,6.5l-1.7,0.8c-0.8-2.8-1.4-4.2-3-6.6L45.2,22.2z"/>
			<path fill="#FFFFFF" d="M54.4,8.8c0-1.3,0-2.1-0.1-2.9C55.2,6,56,6.1,58,6.1h3.3c1.4,0,2,0,2.7-0.1c-0.1,0.7-0.1,1.3-0.1,2.9
				v12.6c0,1.4,0,2,0.1,2.9H62V23h-5.8v2.3h-2c0.1-0.9,0.2-2,0.2-3.1V8.8z M56.2,13.4H62V7.8h-5.8V13.4z M56.2,21.3H62v-6.3h-5.8
				V21.3z M68.1,21.1c-0.4,2.2-1,4-1.9,5.7c-0.9,1.7-1.8,2.7-3.6,4.3c-0.5-0.6-0.8-1-1.6-1.4c2.2-1.7,3.4-3.2,4.3-5.4
				c1.1-2.7,1.5-5.9,1.5-13.9c0-2.9,0-4.3-0.2-5.2c0.9,0.1,1.6,0.1,2.9,0.1h6.5c1.3,0,2.1,0,2.8-0.1c-0.1,0.7-0.1,1.6-0.1,2.9v19.7
				c0,1.1-0.2,1.7-0.8,2.2c-0.4,0.3-1.1,0.4-2.3,0.4c-0.7,0-1.1,0-3-0.1c-0.1-0.8-0.2-1.4-0.5-2.1c1.7,0.3,2.7,0.4,3.7,0.4
				c0.8,0,1-0.2,1-1v-6.5H68.1z M68.7,13.9c-0.1,2.6-0.2,3.7-0.4,5.5h8.6v-5.5H68.7z M76.9,7.1h-8.2V11c0,0.6,0,0.7,0,1.2h8.2V7.1z"
				/>
			<path fill="#FFFFFF" d="M89.5,8.4c0.7-1.7,1-2.9,1.3-4.5l2.1,0.4c-0.6,1.7-1,2.8-1.5,4.1h2C95,8.4,95.9,8.3,96,8.3
				c-0.1,0.8-0.1,1.6-0.1,2.6v15.3c0,1.3,0.1,2.4,0.2,3.1h-2v-1.9h-5.8V30h-2c0.1-0.8,0.1-1.9,0.1-3.7V11.2c0-1.4,0-2.1-0.1-2.8
				c0.4,0.1,1.3,0.1,1.8,0.1h0.9H89.5z M88.2,16.8h5.8v-6.7h-5.8V16.8z M88.2,25.7h5.8v-7.3h-5.8V25.7z M100.9,10.2
				c-1,2.1-1.9,3.4-3.4,5.5c-0.4-0.5-0.9-1-1.4-1.4c1.8-1.9,3.3-4.5,4.4-7.6c0.4-1.1,0.7-2.2,0.8-2.9l2.1,0.4
				c-0.1,0.2-0.2,0.5-0.4,1.1c-0.4,1.2-0.7,1.9-1.1,3.1h7.3c1.2,0,2,0,2.6-0.1c-0.1,0.5-0.1,0.8-0.1,1.9
				c-0.3,11.9-0.7,15.9-1.7,18.3c-0.6,1.4-1.6,1.9-3.3,1.9c-1.1,0-1.9-0.1-3.8-0.2c-0.1-0.9-0.2-1.4-0.5-2.1
				c1.8,0.4,3.2,0.5,4.3,0.5c1.1,0,1.5-0.3,1.9-1.2c0.5-1.4,0.9-4.3,1.1-8.3c0.2-2.4,0.2-4.5,0.2-8.9H100.9z M104.2,22.5
				c-1.7-3.6-2.8-5.5-4.6-7.6l1.5-0.9c1.9,2.3,3.1,4.3,4.7,7.5L104.2,22.5z"/>
			<path fill="#FFFFFF" d="M122.2,6c0-0.8-0.1-1.5-0.2-2.3h2c-0.1,0.8-0.2,1.4-0.2,2.3v1h1.9c1.2,0,1.7,0,2.4-0.1v1.8
				c-0.8-0.1-1.3-0.1-2.4-0.1h-2v2.6h1.2c1.5,0,2,0,2.7-0.1l0,0.2c1.2-0.7,2.2-1.3,3.2-2.2c1.9-1.7,3-3,3.9-4.9h1.8
				c1.9,2.9,4.6,5.2,8.3,6.8c-0.5,0.5-0.8,1-1.2,1.6c-3.3-1.8-6.1-4.1-7.9-6.8c-1.7,2.7-4,4.9-6.9,6.9c-0.4-0.6-0.7-1-1.2-1.4
				c-0.1,0.5-0.1,1.1-0.1,2.6v5c0,1.7,0,2.2,0.1,2.9c-0.2,0-0.2,0-0.8-0.1c-0.2,0-1.3,0-2,0h-1.1v2.8h1.9c1.1,0,1.7,0,2.4-0.2v1.9
				c-0.7-0.1-1.3-0.1-2.4-0.1h-1.9v2.3c0,1.2,0.1,1.9,0.2,2.8h-2c0.1-0.8,0.2-1.5,0.2-2.9v-2.2h-2.4c-1.1,0-1.7,0-2.5,0.1v-1.9
				c0.7,0.1,1.3,0.2,2.5,0.2h2.4v-2.8h-1c-1,0-2,0-2.9,0.1c0.1-0.7,0.1-1.6,0.1-3v-4.8c0-1.4,0-2.2-0.1-2.9c0.9,0.1,1.7,0.1,2.8,0.1
				h1.1V8.5H120c-1.1,0-1.7,0-2.5,0.1V6.8c0.7,0.1,1.3,0.1,2.5,0.1h2.2V6z M119.9,12.6v3h2.3v-3H119.9z M119.9,17v3.2h2.3V17H119.9z
				 M126,15.6v-3h-2.3v3H126z M126,20.2V17h-2.3v3.2H126z M130.7,28.2c0,1,0.1,2,0.2,2.7H129c0.1-0.9,0.2-1.8,0.2-2.8V17.3
				c0-1.1,0-1.9-0.1-2.8c0.6,0.1,1.2,0.1,2.4,0.1h2.1c1.2,0,1.8,0,2.4-0.1c-0.1,0.7-0.1,1.6-0.1,2.8v11.4c0,1-0.2,1.3-0.8,1.6
				c-0.4,0.1-0.7,0.2-1.6,0.2c-0.5,0-0.7,0-1.3,0c0-0.7-0.1-1.1-0.4-1.7c0.7,0.1,1.3,0.2,1.8,0.2c0.4,0,0.6-0.1,0.6-0.6v-3.7h-3.5
				V28.2z M134.3,19v-2.9h-3.5V19H134.3z M134.3,23.2v-2.9h-3.5v2.9H134.3z M131.8,10.5c0.6,0.1,1.2,0.1,2.3,0.1h3.8
				c1.1,0,1.6,0,2.2-0.1v1.8c-0.7-0.1-1.3-0.1-2.2-0.1h-3.8c-1,0-1.6,0-2.3,0.1V10.5z M139.7,14.7c-0.1,0.7-0.1,1.3-0.1,2.3v6.1
				c0,1,0.1,1.9,0.1,2.6h-2c0.1-0.7,0.1-1.6,0.1-2.6V17c0-1,0-1.6-0.1-2.3H139.7z M143.4,28.2c0,1.9-0.5,2.4-2.5,2.4
				c-0.6,0-1.4,0-2.1-0.1c0-0.7-0.1-1.2-0.4-1.9c1,0.2,1.7,0.3,2.5,0.3c0.8,0,0.9-0.2,0.9-0.9V16.8c0-1.2-0.1-2.1-0.2-3h2
				c-0.1,1-0.2,1.8-0.2,3V28.2z"/>
			<path fill="#FFFFFF" d="M157.6,7.5c-0.6,0-1.3,0.1-2.3,0.1V5.5c0.6,0.1,1.2,0.1,2.3,0.1h4c1.4,0,2.2-0.1,2.8-0.2
				c-0.1,0.7-0.1,1.3-0.1,2c0,3.8,0.8,7.1,2.5,10.5c1.2,2.2,2.6,4.3,4.5,6.2c1.8,1.8,2.9,2.7,5.6,4.3c-0.8,0.7-1,0.9-1.7,1.9
				c-2.6-1.8-4-3.1-5.8-5.1c-1.7-2-3.3-4.3-4.3-6.5c-0.9-1.9-1.4-3.2-1.9-5.5c-0.9,4-2.2,6.8-4.2,9.7c-1.1,1.6-2.5,3.1-4,4.6
				c-1.1,1-1.9,1.6-3.8,2.9c-0.5-0.8-0.9-1.2-1.6-1.8c3.3-2,5-3.5,7-5.9c2.2-2.6,3.7-5.5,4.6-8.7c0.6-2,0.8-3.5,1-6.5H157.6z"/>
			<path fill="#FFFFFF" d="M182.6,11.3c2,1.2,3,2,5.1,3.8l-1.2,1.6c-1.8-1.8-3.1-2.8-5.1-4L182.6,11.3z M188,21.1
				c-1.3,3.2-2.2,5-3.9,8.1c-0.2,0.3-0.3,0.5-0.6,1.1l-1.7-1.6c0.6-0.6,1.1-1.3,1.8-2.6c1.2-2.2,1.9-3.5,2.9-6.2L188,21.1z
				 M184.4,4.2c2,1.3,3.2,2.2,4.8,3.9L188,9.7c-1.5-1.7-2.8-2.8-4.8-4.2L184.4,4.2z M193,10.6c-1.1,0-2.1,0.1-2.9,0.2V8.7
				c0.8,0.1,1.7,0.2,2.9,0.2h4.2V6.8c0-1.4-0.1-2.3-0.2-3h2.3c-0.1,0.9-0.2,1.7-0.2,3v2.1h5.7c1.1,0,1.9-0.1,2.7-0.2v2.1
				c-0.8-0.1-1.6-0.2-2.7-0.2h-5.7v5.5h6.8c1.2,0,2-0.1,2.8-0.2V18c-0.8-0.1-1.7-0.2-2.7-0.2h-7.8c-1.7,4.5-2.4,5.9-4.2,9.4
				c5.2-0.5,7.3-0.8,10.3-1.3c-1.3-2-2-2.9-3.7-5.1l1.6-0.9c2.6,3.2,4.2,5.5,6.4,9.4l-1.8,1.1c-0.8-1.6-1-2-1.6-3.1
				c-2.4,0.4-2.4,0.4-5.4,0.9c-2.2,0.3-2.2,0.3-8.8,1c-1.2,0.1-1.6,0.2-2.3,0.3l-0.5-2.2c0.5,0.1,0.7,0.1,1,0.1c0.6,0,1.3,0,2.5-0.1
				c2-3.5,3.2-6.2,4.3-9.5h-4.4c-1.1,0-2.1,0.1-2.9,0.2v-2.1c0.8,0.1,1.7,0.2,3,0.2h5.5v-5.5H193z"/>
			<path fill="#FFFFFF" d="M212.8,17.2c0.8-2.2,1.1-3.8,1.2-7.6l1.6,0.4c-0.3,4.2-0.5,5.4-1.3,8L212.8,17.2z M216.4,31
				c0.2-1,0.2-2.2,0.2-3.5V6.7c0-1.1-0.1-2-0.2-3h2.3c-0.2,1-0.2,1.9-0.2,3v21c0,1.3,0.1,2.3,0.2,3.3H216.4z M221.6,13.8
				c0.1,0.3,0.1,0.5,0.2,1l-1.5,0.7c-0.4-2.4-0.7-3.9-1.3-5.5l1.3-0.6c0.5,1.6,0.7,2.2,0.9,2.9h8.4v-1.7c-2.1,0.1-2.6,0.1-7.2,0.2
				c-0.1-0.5-0.3-0.9-0.6-1.5c1,0,1.7,0,2.2,0c3.6,0,9.1-0.4,11.9-0.8c0.6-0.1,1.3-0.3,1.9-0.4l1.4,1.5c-0.4,0.1-0.5,0.1-1.2,0.2
				c-0.1,0-0.4,0.1-0.8,0.1c-1.8,0.2-2.3,0.3-5.9,0.6v1.8h6.9c1.2,0,2-0.1,2.6-0.1v1.7c-0.8-0.1-1.5-0.1-2.5-0.1h-7v1.7h5
				c1.4,0,2,0,2.6-0.1c-0.1,0.5-0.1,1.2-0.1,2.5v3.4c0,1.1,0,1.5,0.1,2.1c-0.5-0.1-1.7-0.1-2.8-0.1h-4.9v1.8h5.7
				c1.3,0,2.1,0,2.7-0.1v1.7c-0.7-0.1-1.4-0.1-2.6-0.1h-5.8v1.8h6.9c1.2,0,2-0.1,2.6-0.2v1.8c-0.8-0.1-1.5-0.1-2.5-0.1h-15.6
				c-1.2,0-1.8,0-2.6,0.1v-1.9c0.8,0.1,1.5,0.2,2.6,0.2h6.8v-1.8h-5.1c-1,0-1.8,0-2.6,0.1v-1.8c0.8,0.1,1.3,0.1,2.7,0.1h5v-1.8h-4.5
				c-1,0-1.9,0-2.7,0.1c0.1-0.6,0.1-1,0.1-2v-3.5c0-1.3,0-1.8-0.1-2.5c0.7,0.1,1.5,0.1,2.8,0.1h4.4v-1.7H221.6z M223.5,7.1
				c-1,0-1.9,0.1-2.6,0.1V5.4c0.8,0.1,1.5,0.2,2.7,0.2h2.8V5.4c0-0.8,0-1.2-0.2-1.6h2C228,4.2,228,4.5,228,5.4v0.2h5.2V5.4
				c0-0.9,0-1.1-0.1-1.6h2c-0.1,0.5-0.2,0.8-0.2,1.6v0.2h3.2c1,0,2-0.1,2.7-0.2v1.8c-0.8-0.1-1.7-0.1-2.7-0.1h-3.2v0.1
				c0,0.5,0,0.8,0.1,1.1h-1.9c0.1-0.4,0.1-0.7,0.1-1.1V7.1H228v0.1c0,0.7,0,1,0.1,1.4h-1.9c0.1-0.4,0.1-0.7,0.1-1.4V7.1H223.5z
				 M224.3,16.9v1.9h5.4v-1.9H224.3z M224.3,20.1V22h5.4v-1.9H224.3z M231.4,18.8h5.9v-1.9h-5.9V18.8z M231.4,22h5.9v-1.9h-5.9V22z"
				/>
			<path fill="#FFFFFF" d="M270.6,16.8c-0.4,0.5-0.6,0.9-1,1.5c-1,1.9-2.3,3.7-3.7,5.3c1.4,2.7,3.2,4.7,4,4.7c0.6,0,1-1.5,1.5-4.7
				c0.6,0.7,1,0.9,1.6,1.3c-0.4,2.2-0.7,3.2-1.1,4.1c-0.5,1-1.1,1.4-1.9,1.4c-1.6,0-3.7-2.1-5.5-5.5c-2.2,2.1-4.4,3.5-7.7,5
				c-0.4-0.7-0.7-1-1.4-1.6c3.5-1.4,5.9-2.9,8.2-5.1c-1.1-2.6-1.9-5.5-2.3-8.9h-7.2v4.9c2.2-0.5,3-0.8,5.4-1.6l0.1,1.8
				c-2.5,0.8-3.5,1.1-5.5,1.6v7.2c0,1.6-0.7,2.1-2.6,2.1c-1,0-2.1-0.1-3.4-0.1c-0.1-0.8-0.2-1.3-0.5-2.1c1.7,0.2,2.7,0.3,3.8,0.3
				c0.6,0,0.8-0.1,0.8-0.7v-6.3c-3,0.8-3.3,0.8-4.2,1c-0.7,0.1-1,0.2-1.6,0.4l-0.5-2.1c1,0,2.8-0.3,6.3-1.1v-5.3h-3.1
				c-1.3,0-2.2,0.1-3.1,0.2v-2.1c0.8,0.1,1.7,0.2,3.1,0.2h3.1V7.9c-2,0.5-3,0.8-5,1.1c-0.2-0.6-0.5-1.1-0.8-1.6
				c4.6-0.5,9.9-2.1,11.6-3.4l1.1,1.7c-0.2,0.1-0.2,0.1-0.5,0.2c-0.1,0-0.1,0-0.8,0.3c-1.4,0.5-2.2,0.8-3.7,1.3v5.2h7.1
				c-0.2-2.2-0.2-2.7-0.3-6.1c0-1.1-0.1-1.5-0.2-2.2h2.3C263,4.9,263,5.6,263,7.1c0,2,0.1,3.3,0.2,5.5h6.6c1.3,0,2.1-0.1,3-0.2v2.1
				c-0.9-0.1-1.8-0.2-3.1-0.2h-6.4c0.4,3.1,0.9,5.3,1.7,7.4c1.8-2.1,3.1-4.2,3.6-6L270.6,16.8z M266.4,4.9c1.9,1.6,3.1,2.9,4.6,4.8
				l-1.4,1.2c-1.5-2-2.3-3-4.5-5.1L266.4,4.9z"/>
			<path fill="#FFFFFF" d="M277.7,25c1.2-2,1.6-2.9,2.3-5c0.8-2.4,1.1-3.9,1.6-6.9l2,0.5c-0.6,3.3-0.9,4.8-1.7,7.3
				c-0.7,2.1-1.1,3.1-2.2,5.3L277.7,25z M288.3,27c0,0.9,0.7,1.1,4.2,1.1c1.8,0,3.2-0.1,3.8-0.4c0.6-0.2,0.9-0.7,1.1-1.7
				c0.2-1.2,0.4-2.5,0.4-4.9c0.8,0.4,1.3,0.6,2,0.8c-0.3,3.7-0.6,5.4-1.1,6.5c-0.7,1.4-1.8,1.7-6.5,1.7c-5.2,0-6-0.4-6-2.6V13
				c0-1-0.1-1.7-0.2-2.9h2.4c-0.2,0.9-0.2,1.7-0.2,2.8V27z M296,10.2c-3.1-2.1-5.3-3.2-9.7-4.8l1.2-1.6c4.3,1.6,6.5,2.6,9.9,4.7
				L296,10.2z M303.8,25.4c-0.8-2.8-1.3-4.1-2.2-6.3c-0.9-2.1-1.4-3.1-2.8-5.3l1.8-0.9c2.4,4,3.5,6.5,5.2,11.4L303.8,25.4z"/>
			<path fill="#FFFFFF" d="M310.4,29.2c2-1.9,2.7-3.1,3.6-5.5l1.7,0.8c-1,2.5-1.8,3.7-3.7,5.8L310.4,29.2z M322.6,5.5
				c0-0.7-0.1-1.3-0.2-2h2.3c-0.1,0.7-0.2,1.3-0.2,2V6h7.4c1.5,0,2.3-0.1,3.1-0.2v1.9c-1-0.1-1.8-0.1-3.1-0.1h-1.8
				c-0.6,1.3-0.9,2-1.5,2.9h4.9c1.8,0,2.7,0,3.5-0.2v1.9c-0.8-0.1-1.7-0.1-3.5-0.1h-19.4c-1.8,0-2.7,0-3.5,0.1v-1.9
				c0.8,0.1,1.9,0.2,3.6,0.2h4.5c-0.3-0.9-0.5-1.4-1.2-2.9h-1.8c-1.3,0-2,0-2.9,0.1V5.8c0.7,0.1,1.6,0.2,3,0.2h6.9V5.5z M317.6,22.6
				c-1.4,0-2.3,0-3.3,0.1c0.1-0.7,0.1-1.3,0.1-2.5v-3.8c0-1.2,0-1.9-0.1-2.6c0.9,0.1,1.7,0.1,3.3,0.1h12.3c1.7,0,2.6,0,3.4-0.1
				c-0.1,0.6-0.1,1.3-0.1,2.6v3.7c0,1.1,0,1.8,0.1,2.5c-0.8-0.1-2.1-0.1-3.2-0.1H317.6z M316.2,17.5h15.2v-2h-15.2V17.5z
				 M316.2,21.1h15.2v-2.2h-15.2V21.1z M319.6,28c0,0.4,0.1,0.5,0.6,0.7c0.5,0.1,1.5,0.2,3.3,0.2c4.1,0,5.1-0.1,5.6-0.6
				c0.3-0.2,0.4-1.3,0.4-2.8c0-0.1,0-0.3,0-0.5c0.8,0.5,1,0.5,1.9,0.7c-0.2,4.7-0.4,4.8-7.2,4.8c-5.5,0-6.3-0.2-6.3-1.9v-2.5
				c0-0.9-0.1-1.6-0.2-2.3h2.2c-0.1,0.7-0.2,1.2-0.2,2.3V28z M326.7,10.5c0.6-1,1.1-1.9,1.5-2.9h-8.7c0.4,0.9,0.8,1.8,1.2,2.9H326.7
				z M325.3,27.6c-1.3-1.6-2-2.4-3.6-3.6l1.3-0.9c1.5,1,2.4,1.9,3.8,3.4L325.3,27.6z M335.7,29.9c-1.5-2.3-2.6-3.7-4.4-5.5l1.5-0.9
				c1.9,1.9,2.9,3.1,4.4,5.2L335.7,29.9z"/>
		</g>
	</g>
	<polygon fill="#00DBFF" points="343.1,33 346.6,27.7 350.1,33 352.1,33 346.6,25.1 341.1,33 	"/>
</g>
<g id="Layer_2">
</g>
</svg>
